<svg width="26" height="26" viewBox="0 0 26 26" fill="none" xmlns="http://www.w3.org/2000/svg">
<path fill-rule="evenodd" clip-rule="evenodd" d="M19.364 6.63593C19.5515 6.82347 19.6569 7.07782 19.6569 7.34304C19.6569 7.60826 19.5515 7.86261 19.364 8.05015L13.7071 13.707C13.5196 13.8945 13.2652 13.9999 13 13.9999C12.7348 13.9999 12.4804 13.8945 12.2929 13.707L6.63604 8.05015C6.4485 7.86261 6.34315 7.60826 6.34315 7.34304C6.34315 7.07782 6.4485 6.82347 6.63604 6.63593C6.82358 6.4484 7.07793 6.34304 7.34315 6.34304C7.60836 6.34304 7.86272 6.4484 8.05025 6.63593L13 11.5857L17.9497 6.63593C18.1373 6.4484 18.3916 6.34304 18.6569 6.34304C18.9221 6.34304 19.1764 6.4484 19.364 6.63593Z" fill="black"/>
<path fill-rule="evenodd" clip-rule="evenodd" d="M12.2929 12.2928C12.4804 12.1053 12.7348 11.9999 13 11.9999C13.2652 11.9999 13.5196 12.1053 13.7071 12.2928L19.364 17.9497C19.5515 18.1372 19.6569 18.3915 19.6569 18.6568C19.6569 18.922 19.5515 19.1763 19.364 19.3639C19.1764 19.5514 18.9221 19.6568 18.6569 19.6568C18.3916 19.6568 18.1373 19.5514 17.9497 19.3639L13 14.4141L8.05025 19.3639C7.86272 19.5514 7.60836 19.6568 7.34315 19.6568C7.07793 19.6568 6.82358 19.5514 6.63604 19.3639C6.4485 19.1763 6.34315 18.922 6.34315 18.6568C6.34315 18.3915 6.4485 18.1372 6.63604 17.9497L12.2929 12.2928Z" fill="black"/>
</svg>
