<svg width="7" height="12" viewBox="0 0 7 12" fill="none" xmlns="http://www.w3.org/2000/svg">
<path d="M6.15866 2.17621C6.31329 2.02005 6.40002 1.80917 6.40002 1.58941C6.40002 1.36965 6.31329 1.15877 6.15866 1.00261C6.08274 0.925513 5.99223 0.864284 5.89242 0.822493C5.7926 0.7807 5.68547 0.759178 5.57726 0.759178C5.46905 0.759178 5.36193 0.7807 5.26211 0.822493C5.1623 0.864284 5.07179 0.925513 4.99586 1.00261L0.399864 5.69221C0.245456 5.84873 0.158885 6.05975 0.158885 6.27961C0.158885 6.49948 0.245456 6.7105 0.399864 6.86701L4.99586 11.5566C5.07179 11.6337 5.1623 11.6949 5.26211 11.7367C5.36192 11.7785 5.46905 11.8 5.57726 11.8C5.68547 11.8 5.7926 11.7785 5.89242 11.7367C5.99223 11.6949 6.08274 11.6337 6.15866 11.5566C6.31329 11.4005 6.40002 11.1896 6.40002 10.9698C6.40002 10.7501 6.31329 10.5392 6.15866 10.383L2.38946 6.27781L6.15866 2.17621Z" fill="black"/>
</svg>
