<svg width="35" height="30" viewBox="0 0 35 30" fill="none" xmlns="http://www.w3.org/2000/svg">
<path d="M1.113 28V28.6101L1.71124 28.4903C5.52479 27.7261 8.70068 26.0612 10.922 23.428C13.1451 20.7928 14.3731 17.234 14.3731 12.7565V1V0.5H13.8731H1H0.5V1V13.6531V14.1531H1H7.54024C7.47188 15.966 7.02504 17.549 6.14534 18.8093C5.19104 20.1765 3.69469 21.2112 1.49706 21.735L1.113 21.8266V22.2214V28ZM21.2399 28V28.6085L21.8369 28.4905C25.7013 27.7266 28.8787 26.0618 31.0882 23.4269C33.299 20.7904 34.5 17.2314 34.5 12.7565V1V0.5H34H21.1269H20.6269V1V13.6531V14.1531H21.1269H27.6672C27.5988 15.966 27.152 17.549 26.2723 18.8093C25.318 20.1765 23.8216 21.2112 21.624 21.735L21.2399 21.8266V22.2214V28Z" stroke="#6248FF"/>
</svg>
